<svg id="Calque_1" data-name="Calque 1" xmlns="http://www.w3.org/2000/svg" xmlns:xlink="http://www.w3.org/1999/xlink" viewBox="0 0 652.56 544.94"><defs><style>.cls-1{fill:#ffed00;}.cls-2{fill:url(#Dégradé_sans_nom_53);}.cls-3{fill:none;}.cls-4{fill:#29235c;}</style><radialGradient id="Dégradé_sans_nom_53" cx="335.54" cy="275.55" r="238.12" gradientUnits="userSpaceOnUse"><stop offset="0" stop-color="#e30613"/><stop offset="0.21" stop-color="#e30613"/><stop offset="0.29" stop-color="#d0091a"/><stop offset="0.46" stop-color="#9f112e"/><stop offset="0.7" stop-color="#501d4d"/><stop offset="0.81" stop-color="#29235c"/></radialGradient></defs><path class="cls-1" d="M593.36,275.36q0,9.88-.73,19.6-.33,4.28-.78,8.5-1,9.32-2.66,18.41c-.53,2.95-1.12,5.88-1.75,8.79q-.86,4-1.86,7.92c-.76,3.06-1.57,6.09-2.46,9.11q-2.89,10-6.58,19.66c-1.19,3.18-2.47,6.32-3.79,9.43-39.46,92.65-131.34,157.6-238.4,157.6a257.73,257.73,0,0,1-143-43c-2.84-1.87-5.65-3.82-8.4-5.81q-8.39-6-16.25-12.74-3.59-3-7.06-6.22-2.91-2.64-5.71-5.38c-2.16-2.08-4.27-4.22-6.35-6.38q-6.53-6.76-12.55-14-2.73-3.29-5.35-6.66A257.88,257.88,0,0,1,75.35,277c0-.55,0-1.11,0-1.66,0-2,0-4.07.07-6.1.12-5.66.44-11.27.93-16.83.23-2.65.51-5.3.81-7.93q1.3-10.92,3.5-21.53c.55-2.74,1.16-5.47,1.81-8.19q2.15-8.94,4.89-17.62,1.34-4.23,2.81-8.4C125.8,88.3,221.67,16.34,334.35,16.34A257.84,257.84,0,0,1,496.07,73q3.48,2.77,6.83,5.65,6.94,6,13.45,12.38c2,2,3.91,3.93,5.82,5.94q6.72,7.06,12.9,14.64,2.52,3.09,4.95,6.25c3.4,4.44,6.68,9,9.79,13.67,1.44,2.14,2.85,4.32,4.22,6.51A257.9,257.9,0,0,1,593.36,275.36Z" transform="translate(-3.25 -3.08)"/><path class="cls-2" d="M573.65,275.55q0,9.09-.67,18-.3,3.93-.72,7.81-.91,8.56-2.44,16.93-.74,4.06-1.61,8.08-.8,3.66-1.71,7.28-1.05,4.21-2.26,8.37-2.67,9.19-6,18.08-1.65,4.38-3.49,8.67C518.43,454,434,513.67,335.54,513.67a236.94,236.94,0,0,1-131.46-39.55c-2.61-1.72-5.19-3.51-7.72-5.34q-7.71-5.55-14.94-11.71-3.3-2.79-6.49-5.72c-1.78-1.62-3.53-3.26-5.25-4.94-2-1.92-3.92-3.88-5.84-5.87q-6-6.23-11.53-12.9-2.52-3-4.92-6.12a237.07,237.07,0,0,1-50-144.44c0-.51,0-1,0-1.53,0-1.87,0-3.74.07-5.61q.17-7.8.85-15.47c.21-2.44.47-4.87.75-7.29q1.2-10,3.21-19.79.77-3.78,1.67-7.53,2-8.22,4.49-16.2c.82-2.59,1.69-5.17,2.59-7.72C143.81,103.58,232,37.43,335.54,37.43A237.09,237.09,0,0,1,484.21,89.54q3.19,2.55,6.28,5.2,6.38,5.48,12.36,11.38,2.73,2.68,5.35,5.46,6.18,6.49,11.86,13.46c1.55,1.89,3.06,3.8,4.55,5.74q4.7,6.14,9,12.57,2,3,3.88,6A237.06,237.06,0,0,1,573.65,275.55Z" transform="translate(-3.25 -3.08)"/><path class="cls-3" d="M223,411.34c-46.7,11.69-79.78,18.52-102.39,22.25q-3.15-4.3-6.13-8.76-4.22-6.25-8.08-12.81A267.68,267.68,0,0,1,69.23,274.77q8.59-1.26,18.66-3.06c22.14-4,49.33-9.73,79.68-16.92Z" transform="translate(-3.25 -3.08)"/><path class="cls-3" d="M162.54,240.6c-40.43,9.52-71,15.5-92.77,18.87.24-3.9.58-7.78,1-11.64.63-5.79,1.45-11.56,2.47-17.27.27-1.62.57-3.24.89-4.85q10.26-1.82,21.82-4.13,5.1-1,10.45-2.13c13.92-2.9,29-6.27,45.11-10.06Z" transform="translate(-3.25 -3.08)"/><path d="M106.39,219.45q-5.36,1.11-10.45,2.13,4.78-1.83,9.85-3.72Z" transform="translate(-3.25 -3.08)"/><path d="M294.56,428.81v-.12C294.81,428.62,294.81,428.66,294.56,428.81Z" transform="translate(-3.25 -3.08)"/><path class="cls-3" d="M550.57,120c-15.45,6.86-37.43,15.67-68,26.6-7.81,2.79-16,5.68-24.48,8.58l-9.49,2.74,2.47-33c20.38-7,39-13.76,55.29-20q5.76-2.19,11.11-4.32h0q6.69-2.66,12.74-5.17c.89.94,1.75,1.88,2.61,2.84q5.91,6.52,11.38,13.46C546.41,114.37,548.52,117.16,550.57,120Z" transform="translate(-3.25 -3.08)"/><path d="M517.52,100.51q-5.35,2.13-11.11,4.32l-.39-2.58Z" transform="translate(-3.25 -3.08)"/><path class="cls-1" d="M294.56,428.81v-.12C294.81,428.62,294.81,428.66,294.56,428.81Z" transform="translate(-3.25 -3.08)"/><path class="cls-4" d="M106.08,218.64l.31.81c-3.57.73-7,1.45-10.45,2.13h0q-7.17,1.44-13.86,2.68,1.65-8.08,3.81-16,11.31-2.18,24.57-5-2.45,7.59-4.37,15.39Z" transform="translate(-3.25 -3.08)"/><path class="cls-1" d="M517.52,100.51q-5.35,2.13-11.11,4.32l-.39-2.58Z" transform="translate(-3.25 -3.08)"/><path class="cls-1" d="M294.57,428.69v.12C294.81,428.66,294.57,428.69,294.57,428.69Z" transform="translate(-3.25 -3.08)"/><path class="cls-1" d="M631.43,290.39c7.21-4.36,13.44-9.17,14.25-15C644.53,280,639,285.2,631.43,290.39Z" transform="translate(-3.25 -3.08)"/><path class="cls-1" d="M521.27,124.72c-11.5,4.5-24.48,9.39-37.95,14.21-7.95,2.84-16,5.66-23.88,8.37l1.37-18.39c16.44-5.71,31.83-11.27,45.8-16.56l3.1-1.15c-1.75-1.85-1.56-4.53-3.38-6.32-14.91,5.64-34.13,12.71-52.16,18.92l-2.46,33,9.49-2.74c8.44-2.89,16.67-5.78,24.48-8.58,15.34-5.49,29-10.61,40.3-15.05C524.49,128.53,522.82,126.61,521.27,124.72Zm49.61,169.87c-5.61,2.22-12.69,4.9-21.63,8.19l-.39.14c-24.25,8.91-58.85,20.95-97.43,33.89l-6.29,2.11,12-161c15.84-5.47,69.11-23.9,80.43-28.42l1.19-.45c-1.26-2-2.64-4-4-5.94-14.26,5.6-84.29,29.7-84.29,29.7L437.38,348.89l16.28-5.44c33.26-11.16,70-23.81,97.62-34h0c8.18-3,15.57-5.79,21.82-8.26q.42-3.89.72-7.81Zm-15.07,36.55,1.2-.43c4-1.47,8.69-3.21,12.72-4.72.58-2.68.66-5.13,1.15-7.84-5,1.89-10.6,3.9-16.28,6h0c-34.81,12.76-80.52,28.39-118.39,40.95l-1.65,22c49.08-15.64,95.29-31.57,131.52-45.48.81-2.77,1-5.38,1.71-8.19l-5.07,1.91c-33.32,12.8-74.77,27.23-120.4,41.92l.52-7C485.3,356.13,526.17,342,555.81,331.14Zm-70.07-242c-21.35,7.43-86.26,28-87,28.26l-4.66,1.48-.22,4.87L386,295.28,331,143.77l-2.23-6.16-6.29,1.82-45.34,13.1-4.64,1.34-.4,4.81-14.36,172.7L228.2,239l-4.58-14.32-14.53-45.43-1.92-6L201,174.55l-6.09,1.24-.16,0-.17,0c-24,6.1-59,14.7-84.56,20.29-.9,2.55-1.77,5.13-2.59,7.72,22.92-4.9,57.08-13.13,88.88-21.22l6.09-1.24L217,226.84l4.58,14.32,40.26,125.9,17.28-207.8,45.34-13.1,66.91,184.46,9.57-206.56s75.63-23.93,91.8-29.89C490.63,92.4,487.87,90.82,485.74,89.12ZM96.09,270.22c0,1.87-.07,3.74-.07,5.61,0,.51,0,1,0,1.53l3.11-.6c19.4-3.71,46.36-9.92,67-14.78l50.75,143.37c-28.11,7-51.62,12.48-66.75,15.62l-3.47.68q2.4,3.11,4.92,6.12c18.64-3.92,47.89-10.84,74.47-17.49L170.63,253.73C145.52,259.68,115.88,266.42,96.09,270.22Zm58.46-61.89c-13.4,3.16-36.88,8.59-51.72,11.84q-.9,3.75-1.67,7.53c13-2.81,34.82-7.83,48.88-11.12l6.35,17.93c-18.91,4.42-42.34,9.69-58.22,12.83-.28,2.42-.54,4.85-.75,7.29,17.37-3.37,44.14-9.44,68.18-15.09Zm76.53,216.14c-21.74,5.46-50,12.31-68.52,16.35,1.92,2,3.86,3.95,5.84,5.87,13.81-3.09,34.77-8,58.21-13.89l2,5.66c-16.59,4.17-35.64,8.92-49.27,12l-5,1q3.18,2.93,6.49,5.72c15.75-3.54,39.31-9.36,56.93-13.79ZM433.43,401.9l-53.71,15.52L314.66,244.86l-20.25,199.2-.27.07-.32.08c-5.75,1.48-61.67,16-100.29,25.21,2.53,1.83,5.11,3.62,7.72,5.34,32.95-8,76.49-19.14,90.25-22.72l4.06-1.06.15,0h0c.42-.1.67-.18.67-.18l4.4-1.38.55-4.62,17.24-169.58,54.56,144.71,2.28,6.05,6.21-1.8,53.71-15.52.09,0,.09,0c.74-.24,69.53-22.12,120-39.94q1.83-4.29,3.49-8.67C507.79,378.26,433.43,401.9,433.43,401.9Z" transform="translate(-3.25 -3.08)"/><path class="cls-1" d="M587.12,332.79l-.06.23-.28.12Z" transform="translate(-3.25 -3.08)"/><path class="cls-1" d="M593.36,292.56l-.34.16-.06,0,.06-.06h0Z" transform="translate(-3.25 -3.08)"/><path class="cls-1" d="M543.72,123l-.37.16.24-.35Z" transform="translate(-3.25 -3.08)"/><path class="cls-1" d="M512.82,86.24l-1.05.43v0Z" transform="translate(-3.25 -3.08)"/><polygon class="cls-1" points="74.28 255.14 74.21 255.15 74.21 255.1 74.26 255.13 74.27 255.13 74.28 255.14"/><path class="cls-1" d="M157.1,462.24l-.3.06-.2-.19Z" transform="translate(-3.25 -3.08)"/><path class="cls-4" d="M156.6,462.11q-8.41-8-16.12-16.84-4.83.92-9.36,1.73c1.73,2.09,3.51,4.13,5.31,6.15q-2.82,1.2-5.48,2.37Zm0,0q-8.41-8-16.12-16.84-4.83.92-9.36,1.73c1.73,2.09,3.51,4.13,5.31,6.15q-2.82,1.2-5.48,2.37Zm0,0q-8.41-8-16.12-16.84-4.83.92-9.36,1.73c1.73,2.09,3.51,4.13,5.31,6.15q-2.82,1.2-5.48,2.37Zm0,0q-8.41-8-16.12-16.84-4.83.92-9.36,1.73c1.73,2.09,3.51,4.13,5.31,6.15q-2.82,1.2-5.48,2.37ZM607.46,264.29A275.86,275.86,0,0,0,565.4,129.72q-4.06-6.43-8.48-12.61h0L543.72,123q4.51,6.15,8.68,12.6A258.67,258.67,0,0,1,593,292.69l14.31-13.27.19,0h.17v0c0-1.14,0-2.29,0-3.43Q607.71,270.12,607.46,264.29ZM156.6,462.11q-8.41-8-16.12-16.84-4.83.92-9.36,1.73c1.73,2.09,3.51,4.13,5.31,6.15q-2.82,1.2-5.48,2.37Zm0,0q-8.41-8-16.12-16.84-4.83.92-9.36,1.73c1.73,2.09,3.51,4.13,5.31,6.15q-2.82,1.2-5.48,2.37ZM587.06,333h0q-2.12,9.18-4.88,18.14C557.39,431.71,493.79,498.65,407,523.74c-85,24.56-172.56,3.34-236.18-49.06q-7.2-5.93-14-12.38l-.51.1-.27.05H156l-.1,0-.23,0-.26.05-.26.05-.51.1-.43.08L153,463l-.65.12-1.94.37h0l-.67.12-.94.18-.8.15-1.18.23-.77.14-.57.11-.58.11-1.11.21-.85.16h0l-.84.16-.23.05-.18,0-.68.13-1.11.21,0,0q6.43,6.6,13.33,12.76A274,274,0,0,0,203.69,514a272.36,272.36,0,0,0,370-106.92,274.16,274.16,0,0,0,25.15-62.74q2.37-9,4.09-18.07l0-.14ZM140.48,445.27q-5.61-6.42-10.82-13.24A258.63,258.63,0,0,1,76.87,273.6q.06-7.71.59-15.37l-.42.07-13.87,2.14h0q-.42,7.62-.41,15.25a275.55,275.55,0,0,0,38.16,138.87q3.84,6.51,8,12.78a.21.21,0,0,0,.06.08l20.6,4.61-15.4,2.57H114s0,0,0,0a265.08,265.08,0,0,0,16.7,21,1.15,1.15,0,0,1,.14.17,2.67,2.67,0,0,1,.09-.26l25.65,6.59Q148.19,454.09,140.48,445.27ZM552.06,110.5q-5.29-6.94-11-13.55-1.95-2.25-4-4.46-5.4-5.94-11.16-11.57l0,0-13.07,5.34-1.05.41L514.5,70.4l-.12-.1Q507,63.88,499.14,58a275.55,275.55,0,0,0-32.35-20.91A272.35,272.35,0,0,0,96.77,144a276.22,276.22,0,0,0-15,31.86q-3.66,9.22-6.61,18.65c0,.14-.09.28-.13.41l10.81,13.33-15.3,2.82a0,0,0,0,0,0,0q-1.94,7.88-3.38,15.85-.61,3.31-1.13,6.64-1.35,8.58-2.13,17.24a1.22,1.22,0,0,0,0,.33l13.61,7a255.68,255.68,0,0,1,4.61-33.92q1.65-8.08,3.81-16C108.76,124,173.72,53.3,263.52,27.36a259,259,0,0,1,248,59.4q6,5.55,11.62,11.51a256.61,256.61,0,0,1,20.47,24.5l8.48-12.25A0,0,0,0,1,552.06,110.5Zm55.27,175.58-13.89,6.45-.08,0-.33.14h0q-.57,8.58-1.72,17.07-1.57,11.63-4.18,23l17.43-18,.28.32a2.58,2.58,0,0,0,.06-.37,264.81,264.81,0,0,0,2.62-28.68.31.31,0,0,0,0-.1Zm-450.73,176q-8.41-8-16.12-16.84-4.83.92-9.36,1.73c1.73,2.09,3.51,4.13,5.31,6.15q-2.82,1.2-5.48,2.37Z" transform="translate(-3.25 -3.08)"/><path class="cls-4" d="M77.52,258.21h0s0,0-.05,0h0l-.42.07q-3.8.63-7.28,1.17t-6.59,1l-.69.1-.28,0c-9.86,1.39-17.48,2.12-23,2.35a249.89,249.89,0,0,1,24.31-12l.35-.16q3.23-1.42,6.89-3,.94-8.69,2.46-17.27c-2.49,1-4.89,2-7.22,3-9.27,3.91-17.25,7.54-23.88,10.85C24.19,253.35,14.33,260.3,17,269.36c2.55,8.84,14.35,9,25.21,8.42,5.67-.3,12.56-1,20.6-2.08,2.08-.28,4.24-.58,6.47-.92,2.45-.36,5-.76,7.64-1.18q5.26-.87,11-1.89,5.49-1,11.38-2.11.18-7.8.88-15.48Q87.7,256.52,77.52,258.21Zm.21-48.43c-2.49.46-4.89.9-7.22,1.3l-1.28.23c-20.36,3.56-34.62,5.24-43.4,5.58,8.39-4.87,23.78-12.23,49.31-22.38l8.09-3.16q3.22-9.53,7.15-18.76-4.41,1.65-8.63,3.27c-17.87,6.84-33,13.13-44.83,18.6-10.32,4.78-18.22,9-23.47,12.55-3.32,2.25-12.14,8.21-9.81,16.28s12.23,8.85,22.6,8.53c9.39-.3,22.69-1.87,39.51-4.66l1.38-.23q3.41-.57,7-1.22c2.59-.45,5.25-.94,8-1.45q1.65-8.08,3.81-16h-.06C83,208.79,80.34,209.3,77.73,209.78ZM183.6,456.6q-12.91,2.88-24.63,5.26l-1.87.38-.3.06-.51.1-.27.05H156l-.1,0-.23,0-.26.05-.26.05-.51.1c-2.68.54-5.26,1-7.72,1.52h0q-3.63.69-7,1.29l-1.6.28-.27.05-.78.14L137,466a.47.47,0,0,0-.17,0h-.1c-18.71,3.29-30.17,4.48-37.12,4.79a270,270,0,0,1,27.13-13.51l4-1.75.23-.09q2.66-1.17,5.48-2.37c-1.8-2-3.58-4.06-5.31-6.15q4.53-.81,9.36-1.73t10.11-2q7.36-1.49,15.3-3.19-6-6.21-11.61-12.86c-9.16,1.91-17.34,3.49-24.62,4.79h0q-4.75.85-9,1.56-3.35.56-6.39,1h0l-.18,0c-10.87,1.65-18.89,2.48-24.51,2.75,4.12-2.45,10.27-5.74,19.45-10,1.73-.8,3.56-1.64,5.51-2.52-2.8-4.17-5.51-8.45-8.08-12.8-1.89.86-3.72,1.71-5.47,2.54-6.84,3.22-12.61,6.19-17.26,8.86-10,5.75-18.9,12.22-16.41,20.58,2.67,8.92,15.39,8.54,21.5,8.36,4.46-.13,9.86-.58,16.16-1.35q-9.18,4.56-15.1,8.28c-4.91,3.08-15.14,9.5-12.54,18.24,2.7,9,15.22,8.91,26.74,8.1,11.73-.83,28.25-3.29,49.1-7.33l.13,0,7.17-1.4,1.92-.39c2.57-.53,5.4-1.14,8.45-1.81,8.07-1.78,17.66-4,27.86-6.44Q190.89,462.72,183.6,456.6ZM583.82,57.67c-2.61-9-15.12-9-26.61-8.33-11.72.71-28.21,3-49,6.84l-4.53.85-4.5,1L490,60q8,5.7,15.59,12l.95-.2,4.38-.82,3.5-.64.14,0c24.62-4.42,38.8-5.84,46.88-6.13-2.93,1.71-6.88,3.83-12.19,6.39-5.75,2.79-12.5,5.82-20.15,9.06l-.13.05-3,1.27q-3.4,1.42-7,2.9c-2,.8-4,1.6-6,2.42l-1.05.41-.27.11Q500.85,91,488.65,95.51q6.42,5.46,12.42,11.36l5.34-2-.4-2.58h0l11.49-1.74h0l5.6-2.24q3.69-1.48,7.15-2.92t6.8-2.86c7-3,13.27-5.82,18.68-8.44C578.86,72.86,586.21,66,583.82,57.67Zm12.77,44.19c-2.46-8.48-14-8.54-19-8.57-7.38,0-17.83.92-31.09,2.83L541,97l-8.15,1.23q5.89,6.52,11.37,13.47l4.48-.68,3.33-.47h0c10.23-1.41,17.3-2,22.16-2.16-3.94,2.27-9.39,5.09-16.68,8.47l-.64.3q-3,1.36-6.35,2.87c-2.15,1-4.43,2-6.85,3l-.37.16c-6,2.55-12.77,5.34-20.44,8.37,3.14,4.08,6.16,8.27,9,12.56,7.43-3,14.28-5.8,20.47-8.49q3.54-1.53,6.78-3c2.17-1,4.25-1.92,6.22-2.85l.38-.18c9.54-4.5,16.84-8.5,21.69-11.86C590.58,115.51,598.86,109.75,596.59,101.86ZM655.37,304.8c-2.45-8.21-13-8.81-24-8.25q-5.07.26-11.51,1l-2.14.25q6.79-3.36,11.8-6.27l1.89-1.12c7.55-5.19,13.1-10.39,14.25-15a.43.43,0,0,0,0-.05,9.52,9.52,0,0,0-.33-4.1c-2.41-8-12.4-8.75-22.83-8.32-4.24.18-9.27.63-15.06,1.34-2,.24-4.13.52-6.32.82q.35,7.59.22,15.14,3.15-.47,6-.83l.19,0,.17,0c6.31-.82,11.44-1.3,15.44-1.5-3.51,2.09-8.52,4.8-15.62,8.22q-3,1.43-6.42,3c-2.36,1.08-4.91,2.23-7.65,3.43l-.08,0-.33.14h0c-4.89,2.15-10.4,4.49-16.61,7-1.85.76-3.85,1.56-6,2.4q-1,8.58-2.53,17c8.62-3.28,16.13-6.24,22.11-8.77l1.32-.56c2.93-1.23,5.73-2.45,8.42-3.63-.06.6-.14,1.21-.2,1.81-.32,2.63-.67,5.24-1.07,7.86,2.13-.37,4.16-.7,6.1-1l.34-.05a255.32,255.32,0,0,1,28.17-3.29,239.09,239.09,0,0,1-21.72,11.06l-.24.1-.17.08c-2.45,1.12-5.11,2.32-8,3.57q-3.26,1.43-6.88,3c-2.83,1.2-5.82,2.46-9,3.76h0l-.28.11c-6.31,2.59-13.34,5.4-21.19,8.44l-3.45,1.33q-2.75,9.24-6.21,18.17c8-2.87,15.35-5.63,21.84-8.16h0L580,352l2.15-.86q4.94-1.95,9.55-3.84h0q3.67-1.5,7.14-3c14.54-6.1,26.32-11.55,35.18-16.26C649.11,320.08,657.94,313.39,655.37,304.8Zm-112-181.68c-6,2.55-12.77,5.34-20.44,8.37,3.14,4.08,6.16,8.27,9,12.56,7.43-3,14.28-5.8,20.47-8.49q-4.15-6.45-8.68-12.6ZM511.5,86.76Q500.85,91,488.65,95.51q6.42,5.46,12.42,11.36l5.34-2-.4-2.58h0l11.49-1.74h0l5.6-2.24Q517.48,92.32,511.5,86.76ZM159,461.86l-1.87.38-.3.06q6.76,6.45,14,12.38c8.07-1.78,17.66-4,27.86-6.44q-7.75-5.52-15-11.64Q170.69,459.48,159,461.86Zm-4.69-34.62c-9.16,1.91-17.34,3.49-24.62,4.79q5.21,6.83,10.82,13.24,4.91-.93,10.11-2,7.36-1.49,15.3-3.19Q159.85,433.89,154.28,427.24Zm-76.77-169s0,0-.05,0h0q-.52,7.65-.59,15.37,5.26-.87,11-1.89,5.49-1,11.38-2.11.18-7.8.88-15.48-12.44,2.4-22.62,4.09Z" transform="translate(-3.25 -3.08)"/><path class="cls-4" d="M517.52,100.51q-5.35,2.13-11.11,4.32l-.39-2.58Z" transform="translate(-3.25 -3.08)"/><circle class="cls-4" cx="486.04" cy="427.36" r="29.13"/><path class="cls-1" d="M484.68,440H472.26v-2.46l5.86-6.25c.44-.49.81-.93,1.12-1.32a10.93,10.93,0,0,0,.73-1.1,4,4,0,0,0,.4-.93,3,3,0,0,0,.12-.83,2.79,2.79,0,0,0-.61-1.89,2.19,2.19,0,0,0-1.75-.7,2.63,2.63,0,0,0-1.12.23,2.4,2.4,0,0,0-.83.64,2.87,2.87,0,0,0-.5,1,4,4,0,0,0-.17,1.22h-3.62a6.13,6.13,0,0,1,.44-2.31,5.5,5.5,0,0,1,1.26-1.89,6,6,0,0,1,2-1.28,6.85,6.85,0,0,1,2.63-.48,8.13,8.13,0,0,1,2.53.36,5.08,5.08,0,0,1,1.85,1,4.13,4.13,0,0,1,1.13,1.62,5.69,5.69,0,0,1,.39,2.16,5.44,5.44,0,0,1-.29,1.75,8.2,8.2,0,0,1-.81,1.7,14.91,14.91,0,0,1-1.26,1.71q-.75.85-1.65,1.8l-3.2,3.37h7.79Z" transform="translate(-3.25 -3.08)"/><path class="cls-1" d="M487.22,438.25a2,2,0,0,1,.15-.77,1.6,1.6,0,0,1,.41-.61,2,2,0,0,1,.64-.41,2.4,2.4,0,0,1,1.67,0,2,2,0,0,1,.65.41,1.6,1.6,0,0,1,.41.61,2,2,0,0,1,.15.77,1.86,1.86,0,0,1-.15.75,1.6,1.6,0,0,1-.41.61,1.93,1.93,0,0,1-.65.4,2.56,2.56,0,0,1-1.67,0,2,2,0,0,1-.64-.4,1.6,1.6,0,0,1-.41-.61A1.86,1.86,0,0,1,487.22,438.25Z" transform="translate(-3.25 -3.08)"/><path class="cls-1" d="M506.5,432.52a12.33,12.33,0,0,1-.44,3.5,6.62,6.62,0,0,1-1.25,2.41,4.67,4.67,0,0,1-1.93,1.39,7.29,7.29,0,0,1-5,0,4.84,4.84,0,0,1-1.94-1.39A6.47,6.47,0,0,1,494.7,436a12,12,0,0,1-.45-3.5v-3.15a12.4,12.4,0,0,1,.44-3.51,6.42,6.42,0,0,1,1.25-2.4,4.78,4.78,0,0,1,1.93-1.38,7.14,7.14,0,0,1,5,0,4.81,4.81,0,0,1,1.94,1.38,6.72,6.72,0,0,1,1.25,2.4,12,12,0,0,1,.45,3.51Zm-3.6-3.66a9.67,9.67,0,0,0-.17-2,3.82,3.82,0,0,0-.49-1.33,1.94,1.94,0,0,0-.81-.73,2.44,2.44,0,0,0-1.07-.22,2.39,2.39,0,0,0-1.06.22,1.9,1.9,0,0,0-.79.73,4,4,0,0,0-.5,1.33,10.49,10.49,0,0,0-.16,2V433A9.94,9.94,0,0,0,498,435a4.21,4.21,0,0,0,.5,1.36,1.89,1.89,0,0,0,.8.74,2.44,2.44,0,0,0,1.07.22,2.47,2.47,0,0,0,1.07-.22,1.92,1.92,0,0,0,.79-.74,4.22,4.22,0,0,0,.48-1.36,9.94,9.94,0,0,0,.17-2.05Z" transform="translate(-3.25 -3.08)"/><path class="cls-1" d="M489.36,462.11a31.52,31.52,0,1,1,31.51-31.52A31.56,31.56,0,0,1,489.36,462.11Zm0-58.78a27.27,27.27,0,1,0,27.26,27.26A27.29,27.29,0,0,0,489.36,403.33Z" transform="translate(-3.25 -3.08)"/></svg>