<?xml version="1.0" encoding="utf-8"?>
<!-- Generator: Adobe Illustrator 25.3.0, SVG Export Plug-In . SVG Version: 6.00 Build 0)  -->
<svg version="1.1" id="Calque_1" xmlns="http://www.w3.org/2000/svg" xmlns:xlink="http://www.w3.org/1999/xlink" x="0px" y="0px"
	 viewBox="0 0 85.45 23.34" style="enable-background:new 0 0 85.45 23.34;" xml:space="preserve">
<style type="text/css">
	.st0{fill:#FFED00;}
	.st1{fill:url(#SVGID_1_);}
	.st2{fill:none;}
	.st3{fill:#29235C;}
</style>
<g>
	<g>
		<path class="st0" d="M24.5,11.66c0,0.26-0.01,0.52-0.03,0.77c-0.01,0.11-0.02,0.22-0.03,0.33c-0.03,0.24-0.06,0.49-0.1,0.73
			c-0.02,0.12-0.04,0.23-0.07,0.35c-0.02,0.1-0.05,0.21-0.07,0.31c-0.03,0.12-0.06,0.24-0.1,0.36c-0.08,0.26-0.16,0.52-0.26,0.78
			c-0.05,0.13-0.1,0.25-0.15,0.37c-1.56,3.65-5.18,6.21-9.4,6.21c-2.08,0-4.02-0.62-5.64-1.7c-0.11-0.07-0.22-0.15-0.33-0.23
			c-0.22-0.16-0.43-0.33-0.64-0.5C7.59,19.37,7.5,19.29,7.4,19.2c-0.08-0.07-0.15-0.14-0.23-0.21c-0.08-0.08-0.17-0.17-0.25-0.25
			c-0.17-0.18-0.34-0.36-0.49-0.55c-0.07-0.09-0.14-0.17-0.21-0.26c-1.33-1.71-2.13-3.86-2.14-6.19c0-0.02,0-0.04,0-0.07
			c0-0.08,0-0.16,0-0.24c0-0.22,0.02-0.44,0.04-0.66c0.01-0.1,0.02-0.21,0.03-0.31c0.03-0.29,0.08-0.57,0.14-0.85
			c0.02-0.11,0.05-0.22,0.07-0.32c0.06-0.24,0.12-0.47,0.19-0.69c0.04-0.11,0.07-0.22,0.11-0.33c1.4-3.96,5.19-6.8,9.63-6.8
			c2.41,0,4.63,0.84,6.38,2.23c0.09,0.07,0.18,0.15,0.27,0.22c0.18,0.16,0.36,0.32,0.53,0.49c0.08,0.08,0.15,0.15,0.23,0.23
			c0.18,0.19,0.35,0.38,0.51,0.58c0.07,0.08,0.13,0.16,0.2,0.25c0.13,0.18,0.26,0.36,0.39,0.54c0.06,0.08,0.11,0.17,0.17,0.26
			C23.94,7.82,24.5,9.68,24.5,11.66z"/>
		<radialGradient id="SVGID_1_" cx="14.3395" cy="11.6713" r="9.3882" gradientUnits="userSpaceOnUse">
			<stop  offset="0" style="stop-color:#E30613"/>
			<stop  offset="0.2074" style="stop-color:#E30613"/>
			<stop  offset="0.2716" style="stop-color:#D6101E"/>
			<stop  offset="0.4019" style="stop-color:#B21C31"/>
			<stop  offset="0.587" style="stop-color:#782348"/>
			<stop  offset="0.8138" style="stop-color:#29235C"/>
		</radialGradient>
		<path class="st1" d="M23.73,11.67c0,0.24-0.01,0.48-0.03,0.71c-0.01,0.1-0.02,0.21-0.03,0.31c-0.02,0.23-0.06,0.45-0.1,0.67
			c-0.02,0.11-0.04,0.21-0.06,0.32c-0.02,0.1-0.04,0.19-0.07,0.29c-0.03,0.11-0.06,0.22-0.09,0.33c-0.07,0.24-0.15,0.48-0.24,0.71
			c-0.04,0.12-0.09,0.23-0.14,0.34c-1.43,3.36-4.76,5.71-8.64,5.71c-1.92,0-3.7-0.57-5.18-1.56c-0.1-0.07-0.2-0.14-0.3-0.21
			c-0.2-0.15-0.4-0.3-0.59-0.46c-0.09-0.07-0.17-0.15-0.26-0.23c-0.07-0.06-0.14-0.13-0.21-0.19c-0.08-0.08-0.15-0.15-0.23-0.23
			c-0.16-0.16-0.31-0.33-0.45-0.51c-0.07-0.08-0.13-0.16-0.19-0.24c-1.22-1.57-1.96-3.55-1.97-5.69c0-0.02,0-0.04,0-0.06
			c0-0.07,0-0.15,0-0.22c0-0.21,0.02-0.41,0.03-0.61c0.01-0.1,0.02-0.19,0.03-0.29c0.03-0.26,0.07-0.52,0.13-0.78
			c0.02-0.1,0.04-0.2,0.07-0.3c0.05-0.22,0.11-0.43,0.18-0.64c0.03-0.1,0.07-0.2,0.1-0.3c1.29-3.64,4.77-6.25,8.85-6.25
			c2.22,0,4.26,0.77,5.86,2.05c0.08,0.07,0.17,0.14,0.25,0.21c0.17,0.14,0.33,0.29,0.49,0.45c0.07,0.07,0.14,0.14,0.21,0.22
			c0.16,0.17,0.32,0.35,0.47,0.53c0.06,0.07,0.12,0.15,0.18,0.23c0.12,0.16,0.24,0.33,0.35,0.5c0.05,0.08,0.1,0.16,0.15,0.24
			C23.21,8.14,23.73,9.84,23.73,11.67z"/>
		<path class="st2" d="M9.9,17.03c-1.84,0.46-3.15,0.73-4.04,0.88c-0.08-0.11-0.16-0.23-0.24-0.35c-0.11-0.16-0.22-0.33-0.32-0.51
			c-0.44-0.75-0.8-1.56-1.05-2.44c-0.29-0.99-0.42-1.99-0.41-2.98c0.23-0.03,0.47-0.07,0.74-0.12c0.87-0.16,1.95-0.38,3.14-0.67
			L9.9,17.03z"/>
		<path class="st2" d="M7.52,10.29c-1.59,0.38-2.8,0.61-3.66,0.74c0.01-0.15,0.02-0.31,0.04-0.46C3.93,10.35,3.96,10.12,4,9.9
			c0.01-0.06,0.02-0.13,0.04-0.19C4.3,9.66,4.59,9.6,4.89,9.54C5.03,9.52,5.16,9.49,5.3,9.46c0.55-0.11,1.14-0.25,1.78-0.4
			L7.52,10.29z"/>
		<path d="M5.3,9.46C5.16,9.49,5.03,9.52,4.89,9.54C5.02,9.5,5.15,9.45,5.28,9.4L5.3,9.46z"/>
		<path d="M12.72,17.71L12.72,17.71C12.73,17.71,12.73,17.71,12.72,17.71z"/>
		<path class="st2" d="M22.82,5.54c-0.61,0.27-1.48,0.62-2.68,1.05c-0.31,0.11-0.63,0.22-0.97,0.34L18.8,7.03l0.1-1.3
			c0.8-0.28,1.54-0.54,2.18-0.79c0.15-0.06,0.3-0.11,0.44-0.17l0,0c0.18-0.07,0.34-0.14,0.5-0.2c0.03,0.04,0.07,0.07,0.1,0.11
			c0.16,0.17,0.3,0.35,0.45,0.53C22.65,5.32,22.74,5.43,22.82,5.54z"/>
		<path d="M21.51,4.77c-0.14,0.06-0.29,0.11-0.44,0.17l-0.02-0.1L21.51,4.77z"/>
		<g>
			<path class="st0" d="M12.72,17.71L12.72,17.71C12.73,17.71,12.73,17.71,12.72,17.71z"/>
		</g>
		<g>
			<path class="st3" d="M5.29,9.43l0.01,0.03C5.16,9.49,5.03,9.52,4.89,9.54h0C4.7,9.58,4.52,9.62,4.35,9.65
				C4.39,9.44,4.44,9.23,4.5,9.02c0.3-0.06,0.62-0.12,0.97-0.2C5.4,9.02,5.34,9.22,5.29,9.43L5.29,9.43z"/>
		</g>
		<g>
			<path class="st0" d="M21.51,4.77c-0.14,0.06-0.29,0.11-0.44,0.17l-0.02-0.1L21.51,4.77z"/>
		</g>
		<path class="st0" d="M12.72,17.71L12.72,17.71C12.73,17.71,12.72,17.71,12.72,17.71z"/>
		<path class="st0" d="M26.01,12.26c0.28-0.17,0.53-0.36,0.56-0.59C26.52,11.85,26.3,12.05,26.01,12.26z"/>
		<path class="st0" d="M21.66,5.72c-0.45,0.18-0.96,0.37-1.5,0.56c-0.31,0.11-0.63,0.22-0.94,0.33l0.05-0.73
			c0.65-0.23,1.25-0.44,1.81-0.65l0.12-0.05c-0.07-0.07-0.06-0.18-0.13-0.25c-0.59,0.22-1.35,0.5-2.06,0.75l-0.1,1.3l0.37-0.11
			c0.33-0.11,0.66-0.23,0.97-0.34c0.6-0.22,1.14-0.42,1.59-0.59C21.79,5.87,21.72,5.8,21.66,5.72z M23.62,12.42
			c-0.22,0.09-0.5,0.19-0.85,0.32l-0.02,0.01c-0.96,0.35-2.32,0.83-3.84,1.34c-0.08,0.03-0.17,0.06-0.25,0.08l0.47-6.35
			c0.62-0.22,2.72-0.94,3.17-1.12l0.05-0.02c-0.05-0.08-0.1-0.16-0.16-0.23c-0.56,0.22-3.32,1.17-3.32,1.17l-0.52,6.94
			c0.21-0.07,0.42-0.14,0.64-0.21c1.31-0.44,2.76-0.94,3.85-1.34l0,0c0.32-0.12,0.61-0.23,0.86-0.33c0.01-0.1,0.02-0.2,0.03-0.31
			L23.62,12.42z M23.02,13.86l0.05-0.02c0.16-0.06,0.34-0.13,0.5-0.19c0.02-0.11,0.03-0.2,0.05-0.31c-0.2,0.07-0.42,0.15-0.64,0.24
			h0c-1.37,0.5-3.17,1.12-4.67,1.61l-0.07,0.87c1.94-0.62,3.76-1.24,5.19-1.79c0.03-0.11,0.04-0.21,0.07-0.32l-0.2,0.08
			c-1.31,0.5-2.95,1.07-4.75,1.65l0.02-0.27C20.24,14.85,21.86,14.29,23.02,13.86z M20.26,4.32c-0.84,0.29-3.4,1.11-3.43,1.11
			l-0.18,0.06l-0.01,0.19l-0.31,6.76l-2.17-5.97l-0.09-0.24L13.82,6.3l-1.79,0.52l-0.18,0.05l-0.02,0.19l-0.57,6.81l-1.16-3.64
			L9.93,9.67L9.35,7.88L9.28,7.64L9.04,7.69L8.8,7.74l-0.01,0l-0.01,0c-0.95,0.24-2.33,0.58-3.33,0.8c-0.04,0.1-0.07,0.2-0.1,0.3
			c0.9-0.19,2.25-0.52,3.5-0.84l0.24-0.05l0.57,1.79l0.18,0.56l1.59,4.96l0.68-8.19l1.79-0.52l2.64,7.27l0.38-8.14
			c0,0,2.98-0.94,3.62-1.18C20.45,4.45,20.35,4.39,20.26,4.32z M4.9,11.46c0,0.07,0,0.15,0,0.22c0,0.02,0,0.04,0,0.06l0.12-0.02
			c0.76-0.15,1.83-0.39,2.64-0.58l2,5.65c-1.11,0.28-2.04,0.49-2.63,0.62l-0.14,0.03c0.06,0.08,0.13,0.16,0.19,0.24
			c0.73-0.15,1.89-0.43,2.94-0.69l-2.19-6.17C6.85,11.05,5.68,11.31,4.9,11.46z M7.2,9.02C6.68,9.15,5.75,9.36,5.16,9.49
			c-0.02,0.1-0.05,0.2-0.07,0.3c0.51-0.11,1.37-0.31,1.93-0.44l0.25,0.71c-0.75,0.17-1.67,0.38-2.3,0.51
			c-0.01,0.1-0.02,0.19-0.03,0.29c0.68-0.13,1.74-0.37,2.69-0.59L7.2,9.02z M10.22,17.54c-0.86,0.22-1.97,0.49-2.7,0.64
			c0.08,0.08,0.15,0.16,0.23,0.23c0.54-0.12,1.37-0.32,2.29-0.55l0.08,0.22c-0.65,0.16-1.41,0.35-1.94,0.47l-0.2,0.04
			c0.08,0.08,0.17,0.15,0.26,0.23c0.62-0.14,1.55-0.37,2.24-0.54L10.22,17.54z M18.2,16.65l-2.12,0.61l-2.57-6.8l-0.8,7.85
			c0,0,0,0-0.01,0c0,0-0.01,0-0.01,0c-0.23,0.06-2.43,0.63-3.95,0.99c0.1,0.07,0.2,0.14,0.3,0.21c1.3-0.32,3.02-0.75,3.56-0.9
			c0.08-0.02,0.13-0.03,0.16-0.04l0.01,0l0,0c0.02,0,0.03-0.01,0.03-0.01l0.17-0.05l0.02-0.18l0.68-6.69l2.15,5.71l0.09,0.24
			l0.24-0.07l2.12-0.61l0,0l0,0c0.03-0.01,2.74-0.87,4.73-1.57c0.05-0.11,0.09-0.23,0.14-0.34C21.13,15.72,18.2,16.65,18.2,16.65z"
			/>
		<g>
			<polygon class="st0" points="24.26,13.93 24.26,13.94 24.25,13.94 			"/>
			<path class="st0" d="M24.5,12.34l-0.01,0.01l0,0l0,0c0,0,0,0,0,0C24.5,12.35,24.5,12.34,24.5,12.34z"/>
			<path class="st0" d="M22.55,5.66c0,0-0.01,0-0.01,0.01L22.55,5.66C22.54,5.65,22.55,5.65,22.55,5.66z"/>
			<path class="st0" d="M21.33,4.21l-0.04,0.02v0C21.3,4.22,21.32,4.21,21.33,4.21z"/>
			<polygon class="st0" points="4.17,10.99 4.16,10.99 4.16,10.99 4.17,10.99 4.17,10.99 			"/>
		</g>
		<path class="st0" d="M7.3,19.03c0,0-0.01,0-0.01,0c0,0-0.01-0.01-0.01-0.01L7.3,19.03z"/>
		<g>
			<g>
				<path class="st3" d="M7.28,19.03c-0.22-0.21-0.43-0.43-0.64-0.66c-0.13,0.02-0.25,0.05-0.37,0.07c0.07,0.08,0.14,0.16,0.21,0.24
					c-0.07,0.03-0.15,0.06-0.22,0.09L7.28,19.03z M7.28,19.03c-0.22-0.21-0.43-0.43-0.64-0.66c-0.13,0.02-0.25,0.05-0.37,0.07
					c0.07,0.08,0.14,0.16,0.21,0.24c-0.07,0.03-0.15,0.06-0.22,0.09L7.28,19.03z M7.28,19.03c-0.22-0.21-0.43-0.43-0.64-0.66
					c-0.13,0.02-0.25,0.05-0.37,0.07c0.07,0.08,0.14,0.16,0.21,0.24c-0.07,0.03-0.15,0.06-0.22,0.09L7.28,19.03z M7.28,19.03
					c-0.22-0.21-0.43-0.43-0.64-0.66c-0.13,0.02-0.25,0.05-0.37,0.07c0.07,0.08,0.14,0.16,0.21,0.24c-0.07,0.03-0.15,0.06-0.22,0.09
					L7.28,19.03z M25.06,11.23c-0.04-0.85-0.18-1.7-0.42-2.54c-0.29-0.99-0.71-1.92-1.24-2.77c-0.11-0.17-0.22-0.33-0.33-0.5l0,0
					l-0.52,0.23c0.12,0.16,0.23,0.33,0.34,0.5c0.52,0.81,0.94,1.72,1.22,2.69c0.34,1.17,0.46,2.35,0.38,3.5l0.56-0.52
					c0,0,0.01,0,0.01,0c0,0,0,0,0.01,0c0,0,0,0,0,0c0-0.04,0-0.09,0-0.14C25.07,11.53,25.07,11.38,25.06,11.23z M7.28,19.03
					c-0.22-0.21-0.43-0.43-0.64-0.66c-0.13,0.02-0.25,0.05-0.37,0.07c0.07,0.08,0.14,0.16,0.21,0.24c-0.07,0.03-0.15,0.06-0.22,0.09
					L7.28,19.03z M7.28,19.03c-0.22-0.21-0.43-0.43-0.64-0.66c-0.13,0.02-0.25,0.05-0.37,0.07c0.07,0.08,0.14,0.16,0.21,0.24
					c-0.07,0.03-0.15,0.06-0.22,0.09L7.28,19.03z M24.26,13.94L24.26,13.94c-0.06,0.24-0.12,0.48-0.19,0.72
					c-0.98,3.18-3.48,5.81-6.91,6.8c-3.35,0.97-6.8,0.13-9.31-1.93c-0.19-0.16-0.37-0.32-0.55-0.49c-0.01,0-0.01,0-0.02,0
					c0,0-0.01,0-0.01,0c0,0,0,0,0,0c0,0,0,0,0,0c0,0-0.01,0-0.01,0c0,0-0.01,0-0.01,0c0,0-0.01,0-0.01,0c-0.01,0-0.01,0-0.02,0
					c-0.01,0-0.01,0-0.02,0c-0.01,0-0.03,0.01-0.04,0.01c-0.01,0-0.02,0-0.03,0c-0.02,0-0.05,0.01-0.08,0.01c0,0,0,0,0,0
					c-0.01,0-0.02,0-0.03,0c-0.01,0-0.02,0-0.04,0.01c-0.01,0-0.02,0-0.03,0.01c-0.02,0-0.03,0.01-0.05,0.01
					c-0.01,0-0.02,0-0.03,0.01c-0.01,0-0.01,0-0.02,0c-0.01,0-0.01,0-0.02,0l-0.04,0.01c-0.01,0-0.02,0-0.03,0.01c0,0,0,0,0,0
					c-0.01,0-0.02,0-0.03,0.01c0,0-0.01,0-0.01,0c0,0,0,0-0.01,0c-0.01,0-0.02,0-0.03,0.01c-0.02,0-0.03,0.01-0.04,0.01c0,0,0,0,0,0
					c0.17,0.17,0.34,0.34,0.53,0.5c0.6,0.54,1.27,1.01,1.99,1.41c1.61,0.89,3.38,1.34,5.17,1.34c1,0,2.01-0.14,3-0.43
					c2.76-0.8,5.04-2.62,6.42-5.13c0.44-0.79,0.77-1.62,0.99-2.47c0.06-0.24,0.12-0.47,0.16-0.71c0,0,0,0,0-0.01L24.26,13.94z
					 M6.65,18.36c-0.15-0.17-0.29-0.34-0.43-0.52c-0.74-0.97-1.32-2.1-1.68-3.34c-0.28-0.97-0.41-1.94-0.4-2.9
					c0-0.2,0.01-0.4,0.02-0.61c-0.01,0-0.01,0-0.02,0L3.6,11.08v0c-0.01,0.2-0.02,0.4-0.02,0.6c0,0.99,0.14,1.99,0.43,2.98
					c0.26,0.89,0.62,1.73,1.08,2.5c0.1,0.17,0.21,0.34,0.32,0.5c0,0,0,0,0,0l0.81,0.18l-0.61,0.1c0,0,0,0,0,0c0,0,0,0-0.01,0
					c0,0,0,0,0,0c0.21,0.29,0.43,0.56,0.66,0.83c0,0,0,0,0.01,0.01c0,0,0-0.01,0-0.01l1.01,0.26C7.06,18.82,6.85,18.59,6.65,18.36z
					 M22.88,5.16c-0.14-0.18-0.28-0.36-0.43-0.53c-0.05-0.06-0.1-0.12-0.16-0.18C22.14,4.3,22,4.15,21.85,4c0,0,0,0,0,0l-0.52,0.21
					c-0.01,0.01-0.03,0.01-0.04,0.02l0.11-0.64c0,0,0,0,0,0C21.2,3.41,21,3.25,20.79,3.09c-0.4-0.3-0.83-0.58-1.28-0.82
					C17,0.88,14.1,0.56,11.35,1.36c-2.76,0.8-5.04,2.62-6.42,5.13C4.7,6.89,4.5,7.31,4.33,7.74c-0.1,0.24-0.18,0.49-0.26,0.74
					c0,0.01,0,0.01-0.01,0.02l0.43,0.53l-0.6,0.11c0,0,0,0,0,0c-0.05,0.21-0.1,0.42-0.13,0.62c-0.02,0.09-0.03,0.17-0.04,0.26
					c-0.04,0.23-0.06,0.45-0.08,0.68c0,0,0,0.01,0,0.01l0.54,0.28c0.03-0.45,0.09-0.9,0.18-1.34C4.39,9.44,4.44,9.23,4.5,9.02
					c0.9-3.32,3.46-6.11,7-7.13c0.94-0.27,1.89-0.4,2.82-0.4c2.21,0,4.34,0.73,6.07,2.01c0.31,0.23,0.6,0.47,0.88,0.73
					c0.16,0.15,0.31,0.3,0.46,0.45c0.29,0.3,0.56,0.63,0.81,0.97L22.88,5.16C22.88,5.16,22.88,5.16,22.88,5.16z M25.06,12.09
					l-0.55,0.25c0,0,0,0,0,0c0,0-0.01,0-0.01,0.01l0,0v0c-0.01,0.23-0.04,0.45-0.07,0.67c-0.04,0.31-0.1,0.61-0.16,0.91l0.69-0.71
					l0.01,0.01c0-0.01,0-0.01,0-0.01C25.01,12.84,25.05,12.47,25.06,12.09C25.06,12.09,25.06,12.08,25.06,12.09
					C25.06,12.09,25.06,12.09,25.06,12.09z M7.28,19.03c-0.22-0.21-0.43-0.43-0.64-0.66c-0.13,0.02-0.25,0.05-0.37,0.07
					c0.07,0.08,0.14,0.16,0.21,0.24c-0.07,0.03-0.15,0.06-0.22,0.09L7.28,19.03z"/>
			</g>
			<path class="st3" d="M4.17,10.99L4.17,10.99C4.17,10.99,4.17,10.99,4.17,10.99L4.17,10.99c-0.01,0-0.01,0-0.02,0
				c-0.1,0.02-0.2,0.03-0.29,0.05c-0.09,0.01-0.18,0.03-0.26,0.04c-0.01,0-0.02,0-0.03,0c0,0-0.01,0-0.01,0
				c-0.39,0.05-0.69,0.08-0.91,0.09c0.19-0.11,0.49-0.26,0.96-0.47c0,0,0.01,0,0.01-0.01c0.08-0.04,0.18-0.08,0.27-0.12
				C3.93,10.35,3.96,10.12,4,9.9C3.9,9.94,3.8,9.98,3.71,10.02c-0.37,0.15-0.68,0.3-0.94,0.43c-0.71,0.35-1.1,0.63-0.99,0.98
				c0.1,0.35,0.57,0.35,0.99,0.33c0.22-0.01,0.5-0.04,0.81-0.08c0.08-0.01,0.17-0.02,0.26-0.04c0.1-0.01,0.2-0.03,0.3-0.05
				c0.14-0.02,0.28-0.05,0.43-0.07c0.14-0.03,0.29-0.05,0.45-0.08c0-0.21,0.02-0.41,0.03-0.61C4.73,10.89,4.43,10.94,4.17,10.99z
				 M4.18,9.08C4.08,9.1,3.98,9.11,3.89,9.13c-0.02,0-0.03,0.01-0.05,0.01c-0.8,0.14-1.36,0.21-1.71,0.22
				c0.33-0.19,0.94-0.48,1.94-0.88c0.1-0.04,0.21-0.08,0.32-0.12c0.08-0.25,0.18-0.5,0.28-0.74C4.56,7.66,4.44,7.7,4.33,7.74
				c-0.7,0.27-1.3,0.52-1.77,0.73C2.16,8.66,1.85,8.83,1.64,8.97C1.51,9.06,1.16,9.29,1.25,9.61c0.09,0.32,0.48,0.35,0.89,0.34
				C2.52,9.94,3.04,9.87,3.7,9.76c0.02,0,0.04-0.01,0.05-0.01c0.09-0.01,0.18-0.03,0.28-0.05c0.1-0.02,0.21-0.04,0.31-0.06
				C4.39,9.44,4.44,9.23,4.5,9.02c0,0,0,0,0,0C4.38,9.04,4.28,9.06,4.18,9.08z M8.35,18.81c-0.34,0.08-0.66,0.14-0.97,0.21
				c-0.02,0.01-0.05,0.01-0.07,0.01c0,0-0.01,0-0.01,0c-0.01,0-0.01,0-0.02,0c0,0-0.01,0-0.01,0c0,0,0,0,0,0c0,0,0,0,0,0
				c0,0-0.01,0-0.01,0c0,0-0.01,0-0.01,0c0,0-0.01,0-0.01,0c-0.01,0-0.01,0-0.02,0C7.1,19.07,7,19.09,6.9,19.11l0,0
				c-0.1,0.02-0.19,0.04-0.27,0.05c-0.02,0-0.04,0.01-0.06,0.01c0,0-0.01,0-0.01,0c-0.01,0-0.02,0-0.03,0.01c0,0-0.01,0-0.01,0
				c0,0,0,0-0.01,0c0,0,0,0,0,0c0,0,0,0,0,0c-0.74,0.13-1.19,0.18-1.46,0.19c0.21-0.12,0.54-0.3,1.07-0.53
				c0.05-0.02,0.1-0.05,0.16-0.07c0,0,0.01,0,0.01,0c0.07-0.03,0.14-0.06,0.22-0.09c-0.07-0.08-0.14-0.16-0.21-0.24
				c0.12-0.02,0.24-0.04,0.37-0.07c0.13-0.02,0.26-0.05,0.4-0.08c0.19-0.04,0.39-0.08,0.6-0.13C7.49,18,7.34,17.83,7.19,17.65
				c-0.36,0.08-0.68,0.14-0.97,0.19c0,0,0,0,0,0c-0.12,0.02-0.24,0.04-0.36,0.06c-0.09,0.01-0.17,0.03-0.25,0.04c0,0,0,0,0,0
				c0,0,0,0-0.01,0c-0.43,0.07-0.74,0.1-0.97,0.11c0.16-0.1,0.4-0.23,0.77-0.4c0.07-0.03,0.14-0.06,0.22-0.1
				c-0.11-0.16-0.22-0.33-0.32-0.5c-0.07,0.03-0.15,0.07-0.22,0.1c-0.27,0.13-0.5,0.24-0.68,0.35c-0.39,0.23-0.75,0.48-0.65,0.81
				c0.11,0.35,0.61,0.34,0.85,0.33c0.18-0.01,0.39-0.02,0.64-0.05c-0.24,0.12-0.44,0.23-0.6,0.33c-0.19,0.12-0.6,0.37-0.49,0.72
				c0.11,0.36,0.6,0.35,1.05,0.32c0.46-0.03,1.11-0.13,1.94-0.29c0,0,0,0,0.01,0c0.09-0.02,0.19-0.04,0.28-0.06
				c0.02-0.01,0.05-0.01,0.08-0.02c0.1-0.02,0.21-0.04,0.33-0.07c0.32-0.07,0.7-0.16,1.1-0.25C8.74,19.12,8.54,18.97,8.35,18.81z
				 M24.13,3.08c-0.1-0.36-0.6-0.36-1.05-0.33c-0.46,0.03-1.11,0.12-1.93,0.27c-0.06,0.01-0.12,0.02-0.18,0.03l-0.18,0.04
				l-0.36,0.08c0.21,0.15,0.42,0.31,0.61,0.47l0.04-0.01c0.06-0.01,0.12-0.02,0.17-0.03c0.05-0.01,0.09-0.02,0.14-0.03
				c0,0,0,0,0.01,0c0.97-0.17,1.53-0.23,1.85-0.24c-0.12,0.07-0.27,0.15-0.48,0.25c-0.23,0.11-0.49,0.23-0.79,0.36c0,0,0,0-0.01,0
				C21.93,3.96,21.89,3.98,21.85,4c-0.09,0.04-0.18,0.08-0.28,0.11c-0.08,0.03-0.16,0.06-0.24,0.1c-0.01,0.01-0.03,0.01-0.04,0.02
				c0,0-0.01,0-0.01,0C21,4.34,20.7,4.45,20.38,4.57c0.17,0.14,0.33,0.29,0.49,0.45c0.07-0.03,0.14-0.05,0.21-0.08l-0.02-0.1h0
				l0.45-0.07h0c0.08-0.03,0.15-0.06,0.22-0.09c0.1-0.04,0.19-0.08,0.28-0.12c0.09-0.04,0.18-0.08,0.27-0.11
				c0.28-0.12,0.52-0.23,0.74-0.33C23.93,3.68,24.22,3.41,24.13,3.08z M24.63,4.82c-0.1-0.33-0.55-0.34-0.75-0.34
				c-0.29,0-0.7,0.04-1.23,0.11l-0.22,0.03l-0.32,0.05c0.15,0.17,0.3,0.35,0.45,0.53l0.18-0.03c0.04-0.01,0.09-0.01,0.13-0.02
				c0,0,0,0,0,0c0.4-0.06,0.68-0.08,0.87-0.09c-0.16,0.09-0.37,0.2-0.66,0.33c-0.01,0-0.02,0.01-0.03,0.01
				c-0.08,0.04-0.16,0.07-0.25,0.11c-0.08,0.04-0.17,0.08-0.27,0.12c0,0-0.01,0-0.01,0.01c-0.24,0.1-0.5,0.21-0.81,0.33
				c0.12,0.16,0.24,0.33,0.36,0.5c0.29-0.12,0.56-0.23,0.81-0.33c0.09-0.04,0.18-0.08,0.27-0.12C23.24,6,23.32,5.96,23.4,5.92
				c0.01,0,0.01,0,0.01-0.01c0.38-0.18,0.66-0.34,0.86-0.47C24.4,5.36,24.72,5.13,24.63,4.82z M26.95,12.82
				c-0.1-0.32-0.51-0.35-0.95-0.33c-0.13,0.01-0.28,0.02-0.45,0.04c-0.03,0-0.06,0.01-0.08,0.01c0.18-0.09,0.33-0.17,0.47-0.25
				c0.02-0.01,0.05-0.03,0.07-0.04c0.3-0.2,0.52-0.41,0.56-0.59c0,0,0,0,0,0c0.01-0.05,0-0.11-0.01-0.16
				c-0.1-0.32-0.49-0.34-0.9-0.33c-0.17,0.01-0.37,0.02-0.59,0.05c-0.08,0.01-0.16,0.02-0.25,0.03c0.01,0.2,0.01,0.4,0.01,0.6
				c0.08-0.01,0.16-0.02,0.24-0.03c0,0,0.01,0,0.01,0c0,0,0,0,0.01,0c0.25-0.03,0.45-0.05,0.61-0.06c-0.14,0.08-0.34,0.19-0.62,0.32
				c-0.08,0.04-0.16,0.08-0.25,0.12c-0.09,0.04-0.19,0.09-0.3,0.14c0,0,0,0,0,0c0,0-0.01,0-0.01,0.01l0,0c0,0,0,0,0,0
				c-0.19,0.08-0.41,0.18-0.65,0.28c-0.07,0.03-0.15,0.06-0.24,0.09c-0.03,0.23-0.06,0.45-0.1,0.67c0.34-0.13,0.64-0.25,0.87-0.35
				c0.02-0.01,0.03-0.01,0.05-0.02c0.12-0.05,0.23-0.1,0.33-0.14c0,0.02-0.01,0.05-0.01,0.07c-0.01,0.1-0.03,0.21-0.04,0.31
				c0.08-0.01,0.16-0.03,0.24-0.04c0,0,0.01,0,0.01,0c0.53-0.09,0.88-0.12,1.11-0.13c-0.18,0.1-0.44,0.25-0.86,0.44
				c0,0-0.01,0-0.01,0c0,0,0,0-0.01,0c-0.1,0.04-0.2,0.09-0.31,0.14c-0.09,0.04-0.18,0.08-0.27,0.12c-0.11,0.05-0.23,0.1-0.36,0.15
				v0c0,0-0.01,0-0.01,0c-0.25,0.1-0.53,0.21-0.84,0.33c-0.04,0.02-0.09,0.04-0.14,0.05c-0.07,0.24-0.15,0.48-0.24,0.72
				c0.31-0.11,0.61-0.22,0.86-0.32h0c0.03-0.01,0.06-0.02,0.09-0.04c0.03-0.01,0.06-0.02,0.08-0.03c0.13-0.05,0.26-0.1,0.38-0.15
				l0,0c0.1-0.04,0.19-0.08,0.28-0.12c0.57-0.24,1.04-0.46,1.39-0.64C26.7,13.43,27.05,13.16,26.95,12.82z M22.53,5.66
				c-0.24,0.1-0.5,0.21-0.81,0.33c0.12,0.16,0.24,0.33,0.36,0.5c0.29-0.12,0.56-0.23,0.81-0.33c-0.11-0.17-0.22-0.34-0.34-0.5
				C22.54,5.66,22.54,5.66,22.53,5.66z M21.28,4.23C21,4.34,20.7,4.45,20.38,4.57c0.17,0.14,0.33,0.29,0.49,0.45
				c0.07-0.03,0.14-0.05,0.21-0.08l-0.02-0.1h0l0.45-0.07h0c0.08-0.03,0.15-0.06,0.22-0.09C21.59,4.53,21.43,4.37,21.28,4.23z
				 M7.38,19.02c-0.02,0.01-0.05,0.01-0.07,0.01c0,0-0.01,0-0.01,0c0.18,0.17,0.36,0.33,0.55,0.49c0.32-0.07,0.7-0.16,1.1-0.25
				c-0.2-0.15-0.4-0.3-0.59-0.46C8.01,18.89,7.69,18.95,7.38,19.02z M7.19,17.65c-0.36,0.08-0.68,0.14-0.97,0.19
				c0.14,0.18,0.28,0.35,0.43,0.52c0.13-0.02,0.26-0.05,0.4-0.08c0.19-0.04,0.39-0.08,0.6-0.13C7.49,18,7.34,17.83,7.19,17.65z
				 M4.17,10.99C4.17,10.99,4.17,10.99,4.17,10.99L4.17,10.99c-0.02,0.2-0.02,0.4-0.03,0.61c0.14-0.02,0.28-0.05,0.43-0.07
				c0.14-0.03,0.29-0.05,0.45-0.08c0-0.21,0.02-0.41,0.03-0.61C4.73,10.89,4.43,10.94,4.17,10.99L4.17,10.99z"/>
			<path class="st3" d="M21.51,4.77c-0.14,0.06-0.29,0.11-0.44,0.17l-0.02-0.1L21.51,4.77z"/>
		</g>
		<g>
			<circle class="st3" cx="20.4" cy="17.78" r="1.15"/>
			<g>
				<g>
					<path class="st0" d="M20.22,18.16h-0.49v-0.1l0.23-0.25c0.02-0.02,0.03-0.04,0.04-0.05s0.02-0.03,0.03-0.04
						c0.01-0.01,0.01-0.03,0.02-0.04c0-0.01,0-0.02,0-0.03c0-0.03-0.01-0.06-0.02-0.07s-0.04-0.03-0.07-0.03
						c-0.02,0-0.03,0-0.04,0.01c-0.01,0.01-0.02,0.01-0.03,0.03c-0.01,0.01-0.02,0.02-0.02,0.04c0,0.01-0.01,0.03-0.01,0.05h-0.14
						c0-0.03,0.01-0.06,0.02-0.09c0.01-0.03,0.03-0.05,0.05-0.07c0.02-0.02,0.05-0.04,0.08-0.05c0.03-0.01,0.07-0.02,0.1-0.02
						c0.04,0,0.07,0,0.1,0.01c0.03,0.01,0.05,0.02,0.07,0.04c0.02,0.02,0.03,0.04,0.04,0.06c0.01,0.03,0.02,0.05,0.02,0.08
						c0,0.02,0,0.05-0.01,0.07s-0.02,0.04-0.03,0.07c-0.01,0.02-0.03,0.04-0.05,0.07s-0.04,0.05-0.07,0.07l-0.13,0.13h0.31V18.16z"
						/>
					<path class="st0" d="M20.32,18.09c0-0.01,0-0.02,0.01-0.03c0-0.01,0.01-0.02,0.02-0.02c0.01-0.01,0.02-0.01,0.03-0.02
						c0.01,0,0.02-0.01,0.03-0.01c0.01,0,0.02,0,0.03,0.01c0.01,0,0.02,0.01,0.03,0.02c0.01,0.01,0.01,0.01,0.02,0.02
						c0,0.01,0.01,0.02,0.01,0.03s0,0.02-0.01,0.03c0,0.01-0.01,0.02-0.02,0.02c-0.01,0.01-0.02,0.01-0.03,0.02
						c-0.01,0-0.02,0.01-0.03,0.01c-0.01,0-0.02,0-0.03-0.01c-0.01,0-0.02-0.01-0.03-0.02c-0.01-0.01-0.01-0.01-0.02-0.02
						C20.32,18.11,20.32,18.1,20.32,18.09z"/>
					<path class="st0" d="M21.08,17.86c0,0.05-0.01,0.1-0.02,0.14s-0.03,0.07-0.05,0.1c-0.02,0.02-0.05,0.04-0.08,0.05
						c-0.03,0.01-0.06,0.02-0.1,0.02s-0.07-0.01-0.1-0.02c-0.03-0.01-0.06-0.03-0.08-0.05c-0.02-0.02-0.04-0.06-0.05-0.1
						s-0.02-0.08-0.02-0.14v-0.12c0-0.05,0.01-0.1,0.02-0.14s0.03-0.07,0.05-0.09c0.02-0.02,0.05-0.04,0.08-0.05s0.06-0.02,0.1-0.02
						s0.07,0.01,0.1,0.02c0.03,0.01,0.06,0.03,0.08,0.05c0.02,0.02,0.04,0.06,0.05,0.09s0.02,0.08,0.02,0.14V17.86z M20.94,17.72
						c0-0.03,0-0.06-0.01-0.08c0-0.02-0.01-0.04-0.02-0.05c-0.01-0.01-0.02-0.02-0.03-0.03s-0.03-0.01-0.04-0.01
						c-0.02,0-0.03,0-0.04,0.01c-0.01,0.01-0.02,0.02-0.03,0.03s-0.01,0.03-0.02,0.05c0,0.02-0.01,0.05-0.01,0.08v0.16
						c0,0.03,0,0.06,0.01,0.08c0,0.02,0.01,0.04,0.02,0.05c0.01,0.01,0.02,0.02,0.03,0.03s0.03,0.01,0.04,0.01s0.03,0,0.04-0.01
						s0.02-0.02,0.03-0.03c0.01-0.01,0.01-0.03,0.02-0.05c0-0.02,0.01-0.05,0.01-0.08V17.72z"/>
				</g>
				<g>
					<path class="st0" d="M20.4,19.03c-0.69,0-1.24-0.56-1.24-1.24c0-0.69,0.56-1.24,1.24-1.24c0.69,0,1.24,0.56,1.24,1.24
						C21.65,18.47,21.09,19.03,20.4,19.03z M20.4,16.71c-0.59,0-1.07,0.48-1.07,1.07c0,0.59,0.48,1.07,1.07,1.07
						c0.59,0,1.07-0.48,1.07-1.07C21.48,17.19,21,16.71,20.4,16.71z"/>
				</g>
			</g>
		</g>
	</g>
	<g>
		<path class="st3" d="M38.43,13.49l0.73-3.56h1.44l-1.43,5.59h-1.25L36.87,12l-1.06,3.52h-1.25l-1.43-5.59h1.44l0.73,3.55
			l1.02-3.55h1.08L38.43,13.49z"/>
		<path class="st3" d="M43.92,15.63c-0.43,0-0.82-0.07-1.17-0.21c-0.34-0.14-0.63-0.33-0.87-0.58c-0.24-0.24-0.42-0.53-0.55-0.86
			c-0.13-0.33-0.19-0.68-0.19-1.06v-0.2c0-0.42,0.06-0.81,0.18-1.17c0.12-0.35,0.3-0.66,0.52-0.91c0.23-0.25,0.5-0.45,0.82-0.6
			c0.32-0.14,0.68-0.21,1.08-0.21c0.4,0,0.76,0.07,1.06,0.2c0.31,0.13,0.56,0.32,0.77,0.56c0.21,0.24,0.37,0.53,0.47,0.87
			c0.11,0.34,0.16,0.71,0.16,1.13v0.64h-3.56c0.02,0.18,0.07,0.35,0.15,0.5c0.07,0.15,0.17,0.27,0.28,0.38
			c0.12,0.11,0.25,0.19,0.41,0.25c0.16,0.06,0.33,0.09,0.52,0.09c0.27,0,0.52-0.05,0.75-0.15c0.23-0.1,0.43-0.26,0.59-0.47
			l0.73,0.82c-0.09,0.13-0.2,0.25-0.34,0.37c-0.13,0.12-0.29,0.23-0.48,0.32c-0.18,0.09-0.39,0.17-0.62,0.23
			C44.44,15.6,44.19,15.63,43.92,15.63z M43.75,11.04c-0.16,0-0.3,0.03-0.43,0.09c-0.12,0.06-0.23,0.14-0.32,0.24
			c-0.09,0.1-0.16,0.22-0.21,0.36c-0.06,0.14-0.09,0.3-0.12,0.47h2.08v-0.12c0-0.15-0.02-0.29-0.06-0.41
			c-0.04-0.13-0.1-0.24-0.18-0.33c-0.08-0.09-0.18-0.17-0.31-0.22C44.07,11.06,43.92,11.04,43.75,11.04z"/>
		<path class="st3" d="M51.69,12.45h-2.98v3.07h-1.55V8h4.9v1.26h-3.35v1.94h2.98V12.45z"/>
		<path class="st3" d="M52.85,8.49c0-0.22,0.07-0.41,0.22-0.55c0.15-0.14,0.35-0.22,0.61-0.22c0.13,0,0.24,0.02,0.35,0.06
			c0.1,0.04,0.19,0.09,0.26,0.16c0.07,0.07,0.13,0.15,0.17,0.25c0.04,0.09,0.06,0.2,0.06,0.31c0,0.11-0.02,0.22-0.06,0.31
			c-0.04,0.09-0.1,0.18-0.17,0.25c-0.07,0.07-0.16,0.12-0.26,0.16c-0.1,0.04-0.22,0.06-0.35,0.06c-0.13,0-0.24-0.02-0.35-0.06
			s-0.19-0.09-0.26-0.16c-0.07-0.07-0.13-0.15-0.17-0.25C52.87,8.7,52.85,8.6,52.85,8.49z M54.44,15.52h-1.5V9.93h1.5V15.52z"/>
		<path class="st3" d="M57.8,11.6l0.94-1.67h1.6l-1.59,2.74l1.66,2.85h-1.6l-1-1.76l-0.99,1.76H55.2l1.66-2.85l-1.59-2.74h1.6
			L57.8,11.6z"/>
		<path class="st3" d="M61.04,8.49c0-0.22,0.07-0.41,0.22-0.55c0.15-0.14,0.35-0.22,0.61-0.22c0.13,0,0.24,0.02,0.35,0.06
			c0.1,0.04,0.19,0.09,0.26,0.16c0.07,0.07,0.13,0.15,0.17,0.25c0.04,0.09,0.06,0.2,0.06,0.31c0,0.11-0.02,0.22-0.06,0.31
			c-0.04,0.09-0.1,0.18-0.17,0.25c-0.07,0.07-0.16,0.12-0.26,0.16c-0.1,0.04-0.22,0.06-0.35,0.06c-0.13,0-0.24-0.02-0.35-0.06
			s-0.19-0.09-0.26-0.16C61.2,8.98,61.14,8.89,61.1,8.8C61.06,8.7,61.04,8.6,61.04,8.49z M62.63,15.52h-1.5V9.93h1.5V15.52z"/>
		<path class="st3" d="M65.64,8.56v1.37h0.96v1.1h-0.96v2.79c0,0.12,0.01,0.21,0.04,0.29c0.02,0.08,0.06,0.14,0.11,0.18
			c0.05,0.04,0.11,0.07,0.18,0.09c0.07,0.02,0.15,0.02,0.25,0.02c0.09,0,0.17,0,0.25-0.01c0.07-0.01,0.14-0.02,0.19-0.03v1.13
			c-0.12,0.04-0.26,0.07-0.41,0.1c-0.15,0.03-0.31,0.04-0.5,0.04c-0.24,0-0.47-0.03-0.66-0.09c-0.2-0.06-0.36-0.16-0.5-0.29
			c-0.14-0.13-0.25-0.3-0.32-0.51c-0.08-0.21-0.11-0.46-0.11-0.76v-2.95h-0.82v-1.1h0.82V8.56H65.64z"/>
		<path class="st3" d="M75.16,15.52h-5.16V14.5l2.43-2.59c0.18-0.2,0.34-0.38,0.46-0.55c0.13-0.17,0.23-0.32,0.3-0.45
			c0.08-0.14,0.13-0.27,0.17-0.38c0.03-0.12,0.05-0.23,0.05-0.34c0-0.33-0.08-0.6-0.25-0.79C73,9.2,72.76,9.1,72.44,9.1
			c-0.18,0-0.33,0.03-0.47,0.1c-0.14,0.06-0.25,0.15-0.34,0.26c-0.09,0.11-0.16,0.25-0.21,0.4c-0.05,0.15-0.07,0.32-0.07,0.51h-1.5
			c0-0.34,0.06-0.66,0.18-0.96c0.12-0.3,0.29-0.56,0.52-0.79c0.23-0.22,0.5-0.4,0.82-0.53c0.32-0.13,0.68-0.2,1.09-0.2
			c0.4,0,0.75,0.05,1.05,0.15c0.3,0.1,0.56,0.24,0.77,0.42s0.36,0.41,0.47,0.67c0.11,0.27,0.16,0.56,0.16,0.89
			c0,0.25-0.04,0.49-0.12,0.73c-0.08,0.23-0.19,0.47-0.34,0.7c-0.14,0.23-0.32,0.47-0.52,0.71c-0.2,0.24-0.43,0.49-0.68,0.75
			l-1.33,1.4h3.23V15.52z"/>
		<path class="st3" d="M76.22,14.79c0-0.11,0.02-0.22,0.06-0.32c0.04-0.1,0.1-0.18,0.17-0.25c0.07-0.07,0.16-0.13,0.27-0.17
			c0.1-0.04,0.22-0.06,0.35-0.06s0.24,0.02,0.35,0.06c0.11,0.04,0.19,0.1,0.27,0.17c0.07,0.07,0.13,0.15,0.17,0.25
			c0.04,0.1,0.06,0.2,0.06,0.32c0,0.11-0.02,0.22-0.06,0.32c-0.04,0.1-0.1,0.18-0.17,0.25c-0.07,0.07-0.16,0.13-0.27,0.17
			c-0.11,0.04-0.22,0.06-0.35,0.06s-0.24-0.02-0.35-0.06c-0.1-0.04-0.19-0.09-0.27-0.17c-0.07-0.07-0.13-0.15-0.17-0.25
			C76.24,15.01,76.22,14.9,76.22,14.79z"/>
		<path class="st3" d="M84.21,12.41c0,0.56-0.06,1.05-0.18,1.45c-0.12,0.4-0.29,0.74-0.52,1c-0.22,0.26-0.49,0.45-0.8,0.58
			c-0.31,0.12-0.66,0.18-1.04,0.18c-0.38,0-0.72-0.06-1.04-0.18c-0.31-0.12-0.58-0.31-0.8-0.58c-0.22-0.26-0.4-0.59-0.52-1
			c-0.12-0.4-0.19-0.89-0.19-1.45v-1.31c0-0.56,0.06-1.05,0.18-1.45c0.12-0.4,0.3-0.74,0.52-1c0.22-0.26,0.49-0.45,0.8-0.57
			c0.31-0.12,0.65-0.18,1.03-0.18c0.38,0,0.72,0.06,1.04,0.18c0.31,0.12,0.58,0.31,0.8,0.57c0.22,0.26,0.4,0.59,0.52,1
			c0.12,0.4,0.19,0.89,0.19,1.45V12.41z M82.72,10.89c0-0.33-0.02-0.61-0.07-0.84c-0.05-0.23-0.12-0.41-0.21-0.55
			c-0.09-0.14-0.2-0.24-0.33-0.3c-0.13-0.06-0.28-0.09-0.44-0.09c-0.17,0-0.31,0.03-0.44,0.09c-0.13,0.06-0.24,0.16-0.33,0.3
			c-0.09,0.14-0.16,0.32-0.2,0.55c-0.05,0.23-0.07,0.51-0.07,0.84v1.72c0,0.34,0.02,0.62,0.07,0.85c0.05,0.23,0.12,0.42,0.21,0.56
			c0.09,0.14,0.2,0.25,0.33,0.31c0.13,0.06,0.28,0.09,0.44,0.09c0.17,0,0.31-0.03,0.44-0.09c0.13-0.06,0.24-0.16,0.33-0.31
			c0.09-0.14,0.15-0.33,0.2-0.56c0.05-0.23,0.07-0.51,0.07-0.85V10.89z"/>
	</g>
</g>
</svg>
